<svg viewBox="0 0 36 36" xmlns="http://www.w3.org/2000/svg" xmlns:xlink="http://www.w3.org/1999/xlink" width="36" height="36"><linearGradient id="a"><stop offset="0" stop-color="#fff" stop-opacity="0"/><stop offset="1" stop-color="#fff"/></linearGradient><linearGradient id="b" gradientTransform="matrix(-2.29189997 .41780002 -.06848838 -.3757025 -1924.631311 -13.551573)" gradientUnits="userSpaceOnUse" x1="-815.246886" x2="-814.516238" xlink:href="#a" y1="-998.567848" y2="-998.567848"/><linearGradient id="c" gradientTransform="matrix(2.29189997 -.41780002 -.06848838 -.3757025 907.624101 -530.556805)" gradientUnits="userSpaceOnUse" x1="-422.009314" x2="-421.242521" xlink:href="#a" y1="-1000.001545" y2="-1000.001545"/><path d="m16.460743 14.858444c-1.95428 1.576032-3.698421 4.623027-6.304127 4.623027-3.63538 0-3.488284-2.605706-8.048269-2.605706h-.231151c4.707082 0 4.286806 6.304127 8.720709 6.304127 2.563679 0 4.139711-4.517958 5.862839-8.321448z" fill="#7bc2e3"/><g opacity=".38"><path d="m11.039194 23.200905.777509-.252165.67244-.588385-.609399-3.278146-1.639073.420275z" fill="url(#b)"/><path d="m11.060207 23.200905h-.861563l-.819537-.210138-.840551-3.593352 1.681101.063041z" fill="url(#c)"/></g><path d="m10.597904 23.305974c-2.227458 0-3.278146-1.597045-4.286806-3.131049-1.029674-1.555018-2.101376-3.173078-4.433903-3.173078h-.882577v-.189124h.882578c2.437596 0 3.530311 1.660087 4.580999 3.257132 1.029674 1.555018 1.996307 3.046995 4.118696 3.046995 2.143403 0 3.635381-3.383215 5.064315-6.640347 1.470963-3.320173 2.983954-6.745416 5.253439-6.745416 1.744142 0 2.710775 1.618059 3.740448 3.341187 1.092715 1.828197 2.206444 3.740448 4.391874 3.740448h5.652699v.189124h-5.652699c-2.2905 0-3.446256-1.954279-4.559985-3.824504-.987646-1.681101-1.933265-3.257132-3.572339-3.257132-2.143403 0-3.635381 3.383215-5.064315 6.640348-1.449948 3.29916-2.962938 6.745416-5.232424 6.745416z" fill="#6cbfe2"/><path d="m10.492836 22.402382c-2.122389 0-3.13105-1.344881-4.118696-2.62672-1.029674-1.344881-2.080362-2.752803-4.433903-2.752803h-.945619v-.231151h.945619c2.45861 0 3.551325 1.44995 4.602013 2.836857.987647 1.302853 1.933266 2.542664 3.950586 2.542664 2.038335 0 3.488283-2.899898 4.896204-5.715742 1.407923-2.815843 2.857872-5.715741 4.938234-5.715741 1.660087 0 2.584693 1.344881 3.572339 2.773816 1.11373 1.597046 2.248471 3.257132 4.538971 3.257132h6.241085v.231151h-6.241085c-2.416582 0-3.635381-1.786169-4.728095-3.362201-.945619-1.386908-1.849211-2.689761-3.383215-2.689761-1.95428 0-3.362201 2.836857-4.728095 5.589659-1.44995 2.878885-2.920913 5.862839-5.106344 5.862839z" fill="#41b4de"/><path d="m10.387767 21.498791c-1.996307 0-3.004967-1.092716-3.9716-2.164417-1.029674-1.134743-2.080362-2.311513-4.433903-2.311513h-.987646v-.273179h1.00866c2.458609 0 3.551325 1.218798 4.623027 2.395569.966632 1.071701 1.870224 2.059348 3.761462 2.059348 1.933266 0 3.362201-2.437596 4.749109-4.791136 1.407921-2.395568 2.731788-4.686068 4.64404-4.686068 1.576032 0 2.479624 1.092715 3.425241 2.248472 1.11373 1.365894 2.269486 2.752802 4.686068 2.752802h6.829471v.273179h-6.829471c-2.542664 0-3.782476-1.512991-4.896206-2.857871-.945619-1.155757-1.765156-2.143403-3.215105-2.143403-1.744142 0-3.025981 2.206445-4.391876 4.538971-1.449946 2.458609-2.920909 4.959246-5.001272 4.959246z" fill="#00aad4"/><path d="m10.282698 20.595199c-1.891238 0-2.857871-.861564-3.80349-1.681101-1.029674-.903591-2.080362-1.84921-4.433903-1.84921h-1.050688v-.315206h1.050688c2.45861 0 3.572339.987647 4.64404 1.933266.924605.819537 1.807183 1.618059 3.572339 1.618059 1.84921 0 3.236119-1.954279 4.581-3.845517s2.605706-3.656394 4.328834-3.656394c1.470963 0 2.332527.84055 3.257132 1.723128 1.092715 1.050688 2.311513 2.227458 4.833164 2.227458h7.396843v.315206h-7.37583c-2.647733 0-3.929572-1.239812-5.064315-2.332527-.903592-.882578-1.681101-1.639073-3.025981-1.639073-1.555018 0-2.773815 1.723128-4.076669 3.530311-1.386908 1.954279-2.836857 3.9716-4.833164 3.9716z" fill="#009fd3"/><path d="m10.177629 19.691608c-1.765156 0-2.668747-.483316-3.614366-1.113729-1.029674-.693454-2.080362-1.260825-4.433903-1.260825h-1.239811c-.525344 0-.525344-.609399 0-.609399h1.239812c2.458609 0 3.614366.777509 4.64404 1.44995.903591.609399 1.744142 1.17677 3.404229 1.17677 1.744142 0 3.110036-1.470963 4.433902-2.878885 1.281839-1.365894 2.479624-2.668747 4.013627-2.668747 1.386908 0 2.206444.609399 3.089022 1.239812 1.092715.798523 2.332527 1.6811 5.001273 1.6811h8.426518c.483317 0 .483317.609399 0 .609399h-8.426516c-2.773815 0-4.055654-1.050688-5.211411-1.870224-.861564-.630413-1.618059-1.281839-2.878884-1.281839-1.365894 0-2.521651 1.239812-3.740449 2.542664-1.386908 1.44995-2.815844 2.983954-4.707082 2.983954z" fill="#0097cf"/><g fill="#fff"><path d="m34.553589 20.574185c.525344 0 .84055-.399262.84055-1.050688v-.084055h-4.286805c-.504329 0-.756497.231151-.756497.756495v6.072976h4.160725c.651428 0 .819535-.693455.84055-1.050688v-.084055h-3.803491v-1.786169h2.416582c.252164 0 .525344-.189124.525344-.567372s-.252164-.567372-.525344-.567372h-2.416582v-1.618059h3.004968z"/><path d="m24.004682 19.418429c-.525344 0-.84055.399262-.84055 1.050688v.084055h2.584693v5.673714h1.260825v-5.673714h1.723129c.525344 0 .84055-.399262.84055-1.050688v-.084055z"/><path d="m22.281553 19.418429c-.693455 0-1.092715.33622-1.092715.882578v3.740449c-.693455-.84055-3.341188-4.097683-3.488283-4.265792-.273179-.33622-.588386-.33622-.882577-.33622h-.210138v6.808458h1.197784v-4.602014l3.509298 4.265792c.273179.33622.588386.33622.882577.33622h.210138v-6.829471z"/></g></svg>